<mxfile host="app.diagrams.net" modified="2023-06-25T03:06:47.044Z" agent="Mozilla/5.0 (Windows NT 10.0; Win64; x64; rv:109.0) Gecko/20100101 Firefox/114.0" version="21.5.0" etag="qa0R3kCqe6bNRErebhCr" type="github">
  <diagram name="Page-1" id="b5EEe6DSC4Z6MJp9MTFR">
    <mxGraphModel>
      <root>
        <mxCell id="0" />
        <mxCell id="1" parent="0" />
      </root>
    </mxGraphModel>
  </diagram>
</mxfile>
